<svg version="1.2" xmlns="http://www.w3.org/2000/svg" viewBox="0 0 522 560" width="522" height="560">
	<title>noun-edit-1050781-svg</title>
	<style>
		.s0 { fill: #2563eb } 
	</style>
	<g id="Layer">
		<path id="Layer" fill-rule="evenodd" class="s0" d="m502.9 197.1v167.5c0 15.6-4.5 30.2-14.5 47.6-9 15.6-21.3 27.4-36.4 35.8-47.1 27.4-94.7 54.9-140.6 81.8-14.6 8.4-30.2 12.8-48.7 12.8h-7.9c-16.8-1.1-31.3-5.6-45.3-14-23-13.4-45.9-26.8-69.5-40.3-23.5-13.4-46.4-26.9-70-40.3-21.2-12.3-36.4-31.9-45.3-57.7-2.8-8.4-4.5-18.5-4.5-29.1v-54.3c0-35.9-0.6-72.8 0-109.2 0-37 17.4-67.2 49.8-86.8 34.2-20.2 68.9-40.3 102.5-59.4 12.9-7.8 26.3-15.1 39.8-22.9 15.1-9 32.5-12.9 52.6-12.4 16.8 0.6 31.9 5.1 47.1 13.5 23.5 14 47 27.4 70.5 40.9 23.5 13.4 47.1 26.8 70.6 40.8 21.8 12.4 36.9 32 45.9 59.4 2.8 9 3.9 18.5 3.9 26.3zm-28.5 168.6v-167.5c0-6.7-1.2-13.4-2.8-19-6.8-20.7-17.4-34.7-33.1-43.7-23.5-14-47-27.4-70.5-40.9-23.6-13.4-47.1-26.8-70.6-40.8-10.6-6.2-21.8-9.6-34.2-10.1h-3.3c-13.5 0-24.1 2.8-34.2 8.9-13.4 7.9-26.9 15.2-40.3 23-33.6 19.6-68.3 39.2-101.9 59.4-24.7 15.1-36.4 35.2-36.4 63.2v163.6q0 11.7 3.3 20.1c6.8 20.2 17.4 33.6 33.1 42.6 22.9 13.4 46.5 26.9 70 40.3 23.5 13.4 47 26.9 70 40.3 10.1 6.2 20.7 9.5 33 10.7 15.7 0.5 28.6-2.3 40.3-9 46-26.9 93.6-54.3 141.2-81.8 11.2-6.1 19.6-14.5 25.7-25.7 7.9-12.9 11.2-23.5 11.2-33.6zm-267.7 15.7c1.7 7.2-2.8 15.1-10 16.8l-50.4 12.8c-1.2 0.6-2.3 0.6-3.4 0.6-3.4 0-6.7-1.7-9.5-3.9-3.4-3.4-5.1-8.4-3.9-12.9l10.6-52.6c1.1-7.3 8.4-12.4 16.2-10.7 7.3 1.7 12.4 9 10.7 16.8l-6.2 30.8 29.1-7.3c7.9-2.2 15.2 2.3 16.8 9.6zm183.2-187.6c2.2 2.8 3.9 6.1 3.9 10 0 4-1.1 7.3-3.9 10.1l-151.2 151.2c-2.8 2.8-6.2 3.9-10.1 3.9-3.9 0-7.3-1.1-10.1-3.9l-42-42c-2.2-2.8-3.9-6.1-3.9-10.1 0-3.9 1.1-7.2 3.9-10l151.2-151.2c5-5.1 14.6-5.1 19.6 0zm-30.8 10l-21.8-21.8-131.1 131 21.9 21.9z"/>
	</g>
</svg>